<svg xmlns="http://www.w3.org/2000/svg" data-name="Layer 48" viewBox="0 0 64 80" x="0px" y="0px"><path d="m55,23.21v-5.98c1.72-.45,3-2,3-3.86,0-2.21-1.79-4-4-4s-4,1.79-4,4c0,1.86,1.28,3.41,3,3.86v5.88h-2v-3.07c0-2.45-1.99-4.44-4.45-4.44h-29.11c-2.45,0-4.45,1.99-4.45,4.44v3.07h-2v-5.88c1.72-.45,3-2,3-3.86,0-2.21-1.79-4-4-4s-4,1.79-4,4c0,1.86,1.28,3.41,3,3.86v5.98c-2.28.46-4,2.48-4,4.9v5c0,2.76,2.24,5,5,5h3v3.46c0,2.45,1.99,4.44,4.45,4.44h6.36l7.45,8.28c.19.21.46.33.74.33s.55-.12.74-.33l7.45-8.28h6.36c2.45,0,4.45-1.99,4.45-4.44v-3.46h3c2.76,0,5-2.24,5-5v-5c0-2.41-1.72-4.43-4-4.9Zm-3-9.84c0-1.1.9-2,2-2s2,.9,2,2-.9,2-2,2-2-.9-2-2Zm-44,0c0-1.1.9-2,2-2s2,.9,2,2-.9,2-2,2-2-.9-2-2Zm2,22.74c-1.65,0-3-1.35-3-3v-5c0-1.65,1.35-3,3-3h3v11h-3Zm39,5.46c0,1.35-1.1,2.44-2.45,2.44h-6.8s-.02,0-.03,0c-.07,0-.14.03-.21.04-.06.01-.12.02-.17.04-.05.02-.09.06-.13.09-.07.04-.13.08-.19.14,0,0-.01,0-.02.02l-7.01,7.79-7.01-7.79s-.01,0-.02-.02c-.05-.06-.12-.09-.18-.14-.05-.03-.09-.07-.13-.09-.05-.02-.1-.03-.16-.04-.08-.02-.15-.04-.23-.05,0,0-.02,0-.02,0h-6.8c-1.35,0-2.45-1.1-2.45-2.44v-21.53c0-1.35,1.1-2.44,2.45-2.44h29.11c1.35,0,2.45,1.1,2.45,2.44v21.53Zm8-8.46c0,1.65-1.35,3-3,3h-3v-11h3c1.65,0,3,1.35,3,3v5Z"/><circle cx="23" cy="30.37" r="2"/><circle cx="41" cy="30.37" r="2"/><circle cx="32" cy="30.37" r="2"/><text x="0" y="79" fill="#000000" font-size="5px" font-weight="bold" font-family="'Helvetica Neue', Helvetica, Arial-Unicode, Arial, Sans-serif">Created by Yosua Bungaran</text><text x="0" y="84" fill="#000000" font-size="5px" font-weight="bold" font-family="'Helvetica Neue', Helvetica, Arial-Unicode, Arial, Sans-serif">from the Noun Project</text></svg>